<?xml version="1.0" encoding="UTF-8" standalone="no"?>
<!DOCTYPE svg PUBLIC "-//W3C//DTD SVG 1.1//EN"
 "http://www.w3.org/Graphics/SVG/1.1/DTD/svg11.dtd">
<!-- Generated by graphviz version 2.47.3 (20210619.1520)
 -->
<!-- Title: dependencies Pages: 1 -->
<svg width="2990pt" height="247pt"
 viewBox="0.00 0.00 2990.00 246.80" xmlns="http://www.w3.org/2000/svg" xmlns:xlink="http://www.w3.org/1999/xlink">
<g id="graph0" class="graph" transform="scale(1 1) rotate(0) translate(4 242.8)">
<title>dependencies</title>
<polygon fill="white" stroke="transparent" points="-4,4 -4,-242.8 2986,-242.8 2986,4 -4,4"/>
<text text-anchor="middle" x="1491" y="-8.2" font-family="sans-serif" font-size="14.00">dependencies</text>
<g id="clust1" class="cluster">
<title>cluster_AppModule</title>
<polygon fill="none" stroke="black" stroke-dasharray="1,5" points="8,-32.8 8,-230.8 2974,-230.8 2974,-32.8 8,-32.8"/>
</g>
<g id="clust20" class="cluster">
<title>cluster_AppModule_providers</title>
<polygon fill="none" stroke="black" points="2667,-40.8 2667,-92.8 2966,-92.8 2966,-40.8 2667,-40.8"/>
</g>
<g id="clust17" class="cluster">
<title>cluster_AppModule_imports</title>
<polygon fill="none" stroke="black" points="2515,-40.8 2515,-92.8 2659,-92.8 2659,-40.8 2515,-40.8"/>
</g>
<g id="clust19" class="cluster">
<title>cluster_AppModule_bootstrap</title>
<polygon fill="none" stroke="black" points="1402,-170.8 1402,-222.8 1526,-222.8 1526,-170.8 1402,-170.8"/>
</g>
<g id="clust2" class="cluster">
<title>cluster_AppModule_declarations</title>
<polygon fill="none" stroke="black" points="16,-40.8 16,-92.8 2507,-92.8 2507,-40.8 16,-40.8"/>
</g>
<!-- AppComponent -->
<g id="node1" class="node">
<title>AppComponent</title>
<polygon fill="#ffffb3" stroke="black" points="2498.94,-84.8 2393.06,-84.8 2393.06,-48.8 2498.94,-48.8 2498.94,-84.8"/>
<text text-anchor="middle" x="2446" y="-62.6" font-family="Times,serif" font-size="14.00">AppComponent</text>
</g>
<!-- AppModule -->
<g id="node15" class="node">
<title>AppModule</title>
<polygon fill="#8dd3c7" stroke="black" points="1505.66,-149.8 1502.66,-153.8 1481.66,-153.8 1478.66,-149.8 1422.34,-149.8 1422.34,-113.8 1505.66,-113.8 1505.66,-149.8"/>
<text text-anchor="middle" x="1464" y="-127.6" font-family="Times,serif" font-size="14.00">AppModule</text>
</g>
<!-- AppComponent&#45;&gt;AppModule -->
<g id="edge1" class="edge">
<title>AppComponent&#45;&gt;AppModule</title>
<path fill="none" stroke="black" d="M2446,-85.11C2446,-104.95 2446,-133.8 2446,-133.8 2446,-133.8 1515.88,-133.8 1515.88,-133.8"/>
<polygon fill="black" stroke="black" points="1515.88,-130.3 1505.88,-133.8 1515.88,-137.3 1515.88,-130.3"/>
</g>
<!-- DashboardComponent -->
<g id="node2" class="node">
<title>DashboardComponent</title>
<polygon fill="#ffffb3" stroke="black" points="2374.97,-84.8 2233.03,-84.8 2233.03,-48.8 2374.97,-48.8 2374.97,-84.8"/>
<text text-anchor="middle" x="2304" y="-62.6" font-family="Times,serif" font-size="14.00">DashboardComponent</text>
</g>
<!-- DashboardComponent&#45;&gt;AppModule -->
<g id="edge2" class="edge">
<title>DashboardComponent&#45;&gt;AppModule</title>
<path fill="none" stroke="black" d="M2304,-85.02C2304,-103.63 2304,-129.8 2304,-129.8 2304,-129.8 1515.94,-129.8 1515.94,-129.8"/>
<polygon fill="black" stroke="black" points="1515.94,-126.3 1505.94,-129.8 1515.94,-133.3 1515.94,-126.3"/>
</g>
<!-- DialogChannelSettingsComponent -->
<g id="node3" class="node">
<title>DialogChannelSettingsComponent</title>
<polygon fill="#ffffb3" stroke="black" points="2214.7,-84.8 2003.3,-84.8 2003.3,-48.8 2214.7,-48.8 2214.7,-84.8"/>
<text text-anchor="middle" x="2109" y="-62.6" font-family="Times,serif" font-size="14.00">DialogChannelSettingsComponent</text>
</g>
<!-- DialogChannelSettingsComponent&#45;&gt;AppModule -->
<g id="edge3" class="edge">
<title>DialogChannelSettingsComponent&#45;&gt;AppModule</title>
<path fill="none" stroke="black" d="M2109,-84.82C2109,-102.17 2109,-125.8 2109,-125.8 2109,-125.8 1515.82,-125.8 1515.82,-125.8"/>
<polygon fill="black" stroke="black" points="1515.82,-122.3 1505.82,-125.8 1515.82,-129.3 1515.82,-122.3"/>
</g>
<!-- DialogChatImageComponent -->
<g id="node4" class="node">
<title>DialogChatImageComponent</title>
<polygon fill="#ffffb3" stroke="black" points="1985.36,-84.8 1804.64,-84.8 1804.64,-48.8 1985.36,-48.8 1985.36,-84.8"/>
<text text-anchor="middle" x="1895" y="-62.6" font-family="Times,serif" font-size="14.00">DialogChatImageComponent</text>
</g>
<!-- DialogChatImageComponent&#45;&gt;AppModule -->
<g id="edge4" class="edge">
<title>DialogChatImageComponent&#45;&gt;AppModule</title>
<path fill="none" stroke="black" d="M1895,-84.81C1895,-100.85 1895,-121.8 1895,-121.8 1895,-121.8 1515.72,-121.8 1515.72,-121.8"/>
<polygon fill="black" stroke="black" points="1515.72,-118.3 1505.72,-121.8 1515.72,-125.3 1515.72,-118.3"/>
</g>
<!-- DialogCreateChannelComponent -->
<g id="node5" class="node">
<title>DialogCreateChannelComponent</title>
<polygon fill="#ffffb3" stroke="black" points="1786.12,-84.8 1583.88,-84.8 1583.88,-48.8 1786.12,-48.8 1786.12,-84.8"/>
<text text-anchor="middle" x="1685" y="-62.6" font-family="Times,serif" font-size="14.00">DialogCreateChannelComponent</text>
</g>
<!-- DialogCreateChannelComponent&#45;&gt;AppModule -->
<g id="edge5" class="edge">
<title>DialogCreateChannelComponent&#45;&gt;AppModule</title>
<path fill="none" stroke="black" d="M1685,-84.92C1685,-99.58 1685,-117.8 1685,-117.8 1685,-117.8 1515.83,-117.8 1515.83,-117.8"/>
<polygon fill="black" stroke="black" points="1515.83,-114.3 1505.83,-117.8 1515.83,-121.3 1515.83,-114.3"/>
</g>
<!-- DialogDataprotectionComponent -->
<g id="node6" class="node">
<title>DialogDataprotectionComponent</title>
<polygon fill="#ffffb3" stroke="black" points="1565.12,-84.8 1362.88,-84.8 1362.88,-48.8 1565.12,-48.8 1565.12,-84.8"/>
<text text-anchor="middle" x="1464" y="-62.6" font-family="Times,serif" font-size="14.00">DialogDataprotectionComponent</text>
</g>
<!-- DialogDataprotectionComponent&#45;&gt;AppModule -->
<g id="edge6" class="edge">
<title>DialogDataprotectionComponent&#45;&gt;AppModule</title>
<path fill="none" stroke="black" d="M1464,-84.91C1464,-84.91 1464,-103.79 1464,-103.79"/>
<polygon fill="black" stroke="black" points="1460.5,-103.79 1464,-113.79 1467.5,-103.79 1460.5,-103.79"/>
</g>
<!-- DialogLegalnoticeComponent -->
<g id="node7" class="node">
<title>DialogLegalnoticeComponent</title>
<polygon fill="#ffffb3" stroke="black" points="1344.52,-84.8 1159.48,-84.8 1159.48,-48.8 1344.52,-48.8 1344.52,-84.8"/>
<text text-anchor="middle" x="1252" y="-62.6" font-family="Times,serif" font-size="14.00">DialogLegalnoticeComponent</text>
</g>
<!-- DialogLegalnoticeComponent&#45;&gt;AppModule -->
<g id="edge7" class="edge">
<title>DialogLegalnoticeComponent&#45;&gt;AppModule</title>
<path fill="none" stroke="black" d="M1252,-84.92C1252,-99.58 1252,-117.8 1252,-117.8 1252,-117.8 1412.12,-117.8 1412.12,-117.8"/>
<polygon fill="black" stroke="black" points="1412.12,-121.3 1422.12,-117.8 1412.12,-114.3 1412.12,-121.3"/>
</g>
<!-- DialogProfileSettingsComponent -->
<g id="node8" class="node">
<title>DialogProfileSettingsComponent</title>
<polygon fill="#ffffb3" stroke="black" points="1141.15,-84.8 938.85,-84.8 938.85,-48.8 1141.15,-48.8 1141.15,-84.8"/>
<text text-anchor="middle" x="1040" y="-62.6" font-family="Times,serif" font-size="14.00">DialogProfileSettingsComponent</text>
</g>
<!-- DialogProfileSettingsComponent&#45;&gt;AppModule -->
<g id="edge8" class="edge">
<title>DialogProfileSettingsComponent&#45;&gt;AppModule</title>
<path fill="none" stroke="black" d="M1040,-84.81C1040,-100.85 1040,-121.8 1040,-121.8 1040,-121.8 1412.18,-121.8 1412.18,-121.8"/>
<polygon fill="black" stroke="black" points="1412.18,-125.3 1422.18,-121.8 1412.18,-118.3 1412.18,-125.3"/>
</g>
<!-- DialogUserStatusComponent -->
<g id="node9" class="node">
<title>DialogUserStatusComponent</title>
<polygon fill="#ffffb3" stroke="black" points="921.08,-84.8 740.92,-84.8 740.92,-48.8 921.08,-48.8 921.08,-84.8"/>
<text text-anchor="middle" x="831" y="-62.6" font-family="Times,serif" font-size="14.00">DialogUserStatusComponent</text>
</g>
<!-- DialogUserStatusComponent&#45;&gt;AppModule -->
<g id="edge9" class="edge">
<title>DialogUserStatusComponent&#45;&gt;AppModule</title>
<path fill="none" stroke="black" d="M831,-84.82C831,-102.17 831,-125.8 831,-125.8 831,-125.8 1411.98,-125.8 1411.98,-125.8"/>
<polygon fill="black" stroke="black" points="1411.98,-129.3 1421.98,-125.8 1411.98,-122.3 1411.98,-129.3"/>
</g>
<!-- MenuBarComponent -->
<g id="node10" class="node">
<title>MenuBarComponent</title>
<polygon fill="#ffffb3" stroke="black" points="723.2,-84.8 588.8,-84.8 588.8,-48.8 723.2,-48.8 723.2,-84.8"/>
<text text-anchor="middle" x="656" y="-62.6" font-family="Times,serif" font-size="14.00">MenuBarComponent</text>
</g>
<!-- MenuBarComponent&#45;&gt;AppModule -->
<g id="edge10" class="edge">
<title>MenuBarComponent&#45;&gt;AppModule</title>
<path fill="none" stroke="black" d="M656,-85.02C656,-103.63 656,-129.8 656,-129.8 656,-129.8 1412.26,-129.8 1412.26,-129.8"/>
<polygon fill="black" stroke="black" points="1412.26,-133.3 1422.26,-129.8 1412.26,-126.3 1412.26,-133.3"/>
</g>
<!-- MessageComponent -->
<g id="node11" class="node">
<title>MessageComponent</title>
<polygon fill="#ffffb3" stroke="black" points="571.31,-84.8 440.69,-84.8 440.69,-48.8 571.31,-48.8 571.31,-84.8"/>
<text text-anchor="middle" x="506" y="-62.6" font-family="Times,serif" font-size="14.00">MessageComponent</text>
</g>
<!-- MessageComponent&#45;&gt;AppModule -->
<g id="edge11" class="edge">
<title>MessageComponent&#45;&gt;AppModule</title>
<path fill="none" stroke="black" d="M506,-85.11C506,-104.95 506,-133.8 506,-133.8 506,-133.8 1412.22,-133.8 1412.22,-133.8"/>
<polygon fill="black" stroke="black" points="1412.22,-137.3 1422.22,-133.8 1412.22,-130.3 1412.22,-137.3"/>
</g>
<!-- SignInComponent -->
<g id="node12" class="node">
<title>SignInComponent</title>
<polygon fill="#ffffb3" stroke="black" points="423.17,-84.8 304.83,-84.8 304.83,-48.8 423.17,-48.8 423.17,-84.8"/>
<text text-anchor="middle" x="364" y="-62.6" font-family="Times,serif" font-size="14.00">SignInComponent</text>
</g>
<!-- SignInComponent&#45;&gt;AppModule -->
<g id="edge12" class="edge">
<title>SignInComponent&#45;&gt;AppModule</title>
<path fill="none" stroke="black" d="M364,-85.08C364,-106.12 364,-137.8 364,-137.8 364,-137.8 1412.22,-137.8 1412.22,-137.8"/>
<polygon fill="black" stroke="black" points="1412.22,-141.3 1422.22,-137.8 1412.22,-134.3 1412.22,-141.3"/>
</g>
<!-- SignUpComponent -->
<g id="node13" class="node">
<title>SignUpComponent</title>
<polygon fill="#ffffb3" stroke="black" points="287.11,-84.8 162.89,-84.8 162.89,-48.8 287.11,-48.8 287.11,-84.8"/>
<text text-anchor="middle" x="225" y="-62.6" font-family="Times,serif" font-size="14.00">SignUpComponent</text>
</g>
<!-- SignUpComponent&#45;&gt;AppModule -->
<g id="edge13" class="edge">
<title>SignUpComponent&#45;&gt;AppModule</title>
<path fill="none" stroke="black" d="M225,-84.96C225,-107.15 225,-141.8 225,-141.8 225,-141.8 1412.07,-141.8 1412.07,-141.8"/>
<polygon fill="black" stroke="black" points="1412.07,-145.3 1422.07,-141.8 1412.07,-138.3 1412.07,-145.3"/>
</g>
<!-- ThreadComponent -->
<g id="node14" class="node">
<title>ThreadComponent</title>
<polygon fill="#ffffb3" stroke="black" points="144.47,-84.8 23.53,-84.8 23.53,-48.8 144.47,-48.8 144.47,-84.8"/>
<text text-anchor="middle" x="84" y="-62.6" font-family="Times,serif" font-size="14.00">ThreadComponent</text>
</g>
<!-- ThreadComponent&#45;&gt;AppModule -->
<g id="edge14" class="edge">
<title>ThreadComponent&#45;&gt;AppModule</title>
<path fill="none" stroke="black" d="M84,-85.12C84,-108.46 84,-145.8 84,-145.8 84,-145.8 1412.32,-145.8 1412.32,-145.8"/>
<polygon fill="black" stroke="black" points="1412.32,-149.3 1422.32,-145.8 1412.32,-142.3 1412.32,-149.3"/>
</g>
<!-- AppComponent  -->
<g id="node17" class="node">
<title>AppComponent </title>
<polygon fill="#80b1d3" stroke="black" points="1518.44,-214.8 1409.56,-214.8 1409.56,-178.8 1518.44,-178.8 1518.44,-214.8"/>
<text text-anchor="middle" x="1464" y="-192.6" font-family="Times,serif" font-size="14.00">AppComponent </text>
</g>
<!-- AppModule&#45;&gt;AppComponent  -->
<g id="edge16" class="edge">
<title>AppModule&#45;&gt;AppComponent </title>
<path fill="none" stroke="black" stroke-dasharray="1,5" d="M1464,-149.91C1464,-149.91 1464,-168.79 1464,-168.79"/>
<polygon fill="black" stroke="black" points="1460.5,-168.79 1464,-178.79 1467.5,-168.79 1460.5,-168.79"/>
</g>
<!-- AppRoutingModule -->
<g id="node16" class="node">
<title>AppRoutingModule</title>
<polygon fill="#8dd3c7" stroke="black" points="2651.27,-84.8 2648.27,-88.8 2627.27,-88.8 2624.27,-84.8 2522.73,-84.8 2522.73,-48.8 2651.27,-48.8 2651.27,-84.8"/>
<text text-anchor="middle" x="2587" y="-62.6" font-family="Times,serif" font-size="14.00">AppRoutingModule</text>
</g>
<!-- AppRoutingModule&#45;&gt;AppModule -->
<g id="edge15" class="edge">
<title>AppRoutingModule&#45;&gt;AppModule</title>
<path fill="none" stroke="black" d="M2587,-85.08C2587,-106.12 2587,-137.8 2587,-137.8 2587,-137.8 1515.97,-137.8 1515.97,-137.8"/>
<polygon fill="black" stroke="black" points="1515.97,-134.3 1505.97,-137.8 1515.97,-141.3 1515.97,-134.3"/>
</g>
<!-- AuthService -->
<g id="node18" class="node">
<title>AuthService</title>
<ellipse fill="#fdb462" stroke="black" cx="2899" cy="-66.8" rx="59.11" ry="18"/>
<text text-anchor="middle" x="2899" y="-62.6" font-family="Times,serif" font-size="14.00">AuthService</text>
</g>
<!-- AuthService&#45;&gt;AppModule -->
<g id="edge17" class="edge">
<title>AuthService&#45;&gt;AppModule</title>
<path fill="none" stroke="black" d="M2899,-85.12C2899,-108.46 2899,-145.8 2899,-145.8 2899,-145.8 1515.78,-145.8 1515.78,-145.8"/>
<polygon fill="black" stroke="black" points="1515.78,-142.3 1505.78,-145.8 1515.78,-149.3 1515.78,-142.3"/>
</g>
<!-- SideNavService -->
<g id="node19" class="node">
<title>SideNavService</title>
<ellipse fill="#fdb462" stroke="black" cx="2748" cy="-66.8" rx="73.49" ry="18"/>
<text text-anchor="middle" x="2748" y="-62.6" font-family="Times,serif" font-size="14.00">SideNavService</text>
</g>
<!-- SideNavService&#45;&gt;AppModule -->
<g id="edge18" class="edge">
<title>SideNavService&#45;&gt;AppModule</title>
<path fill="none" stroke="black" d="M2748,-84.96C2748,-107.15 2748,-141.8 2748,-141.8 2748,-141.8 1515.99,-141.8 1515.99,-141.8"/>
<polygon fill="black" stroke="black" points="1515.99,-138.3 1505.99,-141.8 1515.99,-145.3 1515.99,-138.3"/>
</g>
</g>
</svg>
