<?xml version="1.0" encoding="UTF-8" standalone="no"?>
<!DOCTYPE svg PUBLIC "-//W3C//DTD SVG 1.1//EN"
 "http://www.w3.org/Graphics/SVG/1.1/DTD/svg11.dtd">
<!-- Generated by graphviz version 2.47.3 (20210619.1520)
 -->
<!-- Title: dependencies Pages: 1 -->
<svg width="2990pt" height="247pt"
 viewBox="0.00 0.00 2990.00 246.80" xmlns="http://www.w3.org/2000/svg" xmlns:xlink="http://www.w3.org/1999/xlink">
<g id="graph0" class="graph" transform="scale(1 1) rotate(0) translate(4 242.8)">
<title>dependencies</title>
<polygon fill="white" stroke="transparent" points="-4,4 -4,-242.8 2986,-242.8 2986,4 -4,4"/>
<text text-anchor="middle" x="1491" y="-8.2" font-family="sans-serif" font-size="14.00">dependencies</text>
<g id="clust1" class="cluster">
<title>cluster_AppModule</title>
<polygon fill="none" stroke="black" stroke-dasharray="1,5" points="8,-32.8 8,-230.8 2974,-230.8 2974,-32.8 8,-32.8"/>
</g>
<g id="clust2" class="cluster">
<title>cluster_AppModule_declarations</title>
<polygon fill="none" stroke="black" points="475,-40.8 475,-92.8 2966,-92.8 2966,-40.8 475,-40.8"/>
</g>
<g id="clust17" class="cluster">
<title>cluster_AppModule_imports</title>
<polygon fill="none" stroke="black" points="323,-40.8 323,-92.8 467,-92.8 467,-40.8 323,-40.8"/>
</g>
<g id="clust19" class="cluster">
<title>cluster_AppModule_bootstrap</title>
<polygon fill="none" stroke="black" points="1228,-170.8 1228,-222.8 1352,-222.8 1352,-170.8 1228,-170.8"/>
</g>
<g id="clust20" class="cluster">
<title>cluster_AppModule_providers</title>
<polygon fill="none" stroke="black" points="16,-40.8 16,-92.8 315,-92.8 315,-40.8 16,-40.8"/>
</g>
<!-- AppComponent -->
<g id="node1" class="node">
<title>AppComponent</title>
<polygon fill="#ffffb3" stroke="black" points="2957.94,-84.8 2852.06,-84.8 2852.06,-48.8 2957.94,-48.8 2957.94,-84.8"/>
<text text-anchor="middle" x="2905" y="-62.6" font-family="Times,serif" font-size="14.00">AppComponent</text>
</g>
<!-- AppModule -->
<g id="node15" class="node">
<title>AppModule</title>
<polygon fill="#8dd3c7" stroke="black" points="1331.66,-149.8 1328.66,-153.8 1307.66,-153.8 1304.66,-149.8 1248.34,-149.8 1248.34,-113.8 1331.66,-113.8 1331.66,-149.8"/>
<text text-anchor="middle" x="1290" y="-127.6" font-family="Times,serif" font-size="14.00">AppModule</text>
</g>
<!-- AppComponent&#45;&gt;AppModule -->
<g id="edge1" class="edge">
<title>AppComponent&#45;&gt;AppModule</title>
<path fill="none" stroke="black" d="M2905,-85.12C2905,-108.46 2905,-145.8 2905,-145.8 2905,-145.8 1341.95,-145.8 1341.95,-145.8"/>
<polygon fill="black" stroke="black" points="1341.95,-142.3 1331.95,-145.8 1341.95,-149.3 1341.95,-142.3"/>
</g>
<!-- DashboardComponent -->
<g id="node2" class="node">
<title>DashboardComponent</title>
<polygon fill="#ffffb3" stroke="black" points="2833.97,-84.8 2692.03,-84.8 2692.03,-48.8 2833.97,-48.8 2833.97,-84.8"/>
<text text-anchor="middle" x="2763" y="-62.6" font-family="Times,serif" font-size="14.00">DashboardComponent</text>
</g>
<!-- DashboardComponent&#45;&gt;AppModule -->
<g id="edge2" class="edge">
<title>DashboardComponent&#45;&gt;AppModule</title>
<path fill="none" stroke="black" d="M2763,-84.96C2763,-107.15 2763,-141.8 2763,-141.8 2763,-141.8 1341.71,-141.8 1341.71,-141.8"/>
<polygon fill="black" stroke="black" points="1341.71,-138.3 1331.71,-141.8 1341.71,-145.3 1341.71,-138.3"/>
</g>
<!-- DialogChannelSettingsComponent -->
<g id="node3" class="node">
<title>DialogChannelSettingsComponent</title>
<polygon fill="#ffffb3" stroke="black" points="2673.7,-84.8 2462.3,-84.8 2462.3,-48.8 2673.7,-48.8 2673.7,-84.8"/>
<text text-anchor="middle" x="2568" y="-62.6" font-family="Times,serif" font-size="14.00">DialogChannelSettingsComponent</text>
</g>
<!-- DialogChannelSettingsComponent&#45;&gt;AppModule -->
<g id="edge3" class="edge">
<title>DialogChannelSettingsComponent&#45;&gt;AppModule</title>
<path fill="none" stroke="black" d="M2568,-85.08C2568,-106.12 2568,-137.8 2568,-137.8 2568,-137.8 1341.79,-137.8 1341.79,-137.8"/>
<polygon fill="black" stroke="black" points="1341.79,-134.3 1331.79,-137.8 1341.79,-141.3 1341.79,-134.3"/>
</g>
<!-- DialogChatImageComponent -->
<g id="node4" class="node">
<title>DialogChatImageComponent</title>
<polygon fill="#ffffb3" stroke="black" points="2444.36,-84.8 2263.64,-84.8 2263.64,-48.8 2444.36,-48.8 2444.36,-84.8"/>
<text text-anchor="middle" x="2354" y="-62.6" font-family="Times,serif" font-size="14.00">DialogChatImageComponent</text>
</g>
<!-- DialogChatImageComponent&#45;&gt;AppModule -->
<g id="edge4" class="edge">
<title>DialogChatImageComponent&#45;&gt;AppModule</title>
<path fill="none" stroke="black" d="M2354,-85.11C2354,-104.95 2354,-133.8 2354,-133.8 2354,-133.8 1341.71,-133.8 1341.71,-133.8"/>
<polygon fill="black" stroke="black" points="1341.71,-130.3 1331.71,-133.8 1341.71,-137.3 1341.71,-130.3"/>
</g>
<!-- DialogCreateChannelComponent -->
<g id="node5" class="node">
<title>DialogCreateChannelComponent</title>
<polygon fill="#ffffb3" stroke="black" points="2245.12,-84.8 2042.88,-84.8 2042.88,-48.8 2245.12,-48.8 2245.12,-84.8"/>
<text text-anchor="middle" x="2144" y="-62.6" font-family="Times,serif" font-size="14.00">DialogCreateChannelComponent</text>
</g>
<!-- DialogCreateChannelComponent&#45;&gt;AppModule -->
<g id="edge5" class="edge">
<title>DialogCreateChannelComponent&#45;&gt;AppModule</title>
<path fill="none" stroke="black" d="M2144,-85.02C2144,-103.63 2144,-129.8 2144,-129.8 2144,-129.8 1341.77,-129.8 1341.77,-129.8"/>
<polygon fill="black" stroke="black" points="1341.77,-126.3 1331.77,-129.8 1341.77,-133.3 1341.77,-126.3"/>
</g>
<!-- DialogDataprotectionComponent -->
<g id="node6" class="node">
<title>DialogDataprotectionComponent</title>
<polygon fill="#ffffb3" stroke="black" points="2024.12,-84.8 1821.88,-84.8 1821.88,-48.8 2024.12,-48.8 2024.12,-84.8"/>
<text text-anchor="middle" x="1923" y="-62.6" font-family="Times,serif" font-size="14.00">DialogDataprotectionComponent</text>
</g>
<!-- DialogDataprotectionComponent&#45;&gt;AppModule -->
<g id="edge6" class="edge">
<title>DialogDataprotectionComponent&#45;&gt;AppModule</title>
<path fill="none" stroke="black" d="M1923,-84.82C1923,-102.17 1923,-125.8 1923,-125.8 1923,-125.8 1342.02,-125.8 1342.02,-125.8"/>
<polygon fill="black" stroke="black" points="1342.02,-122.3 1332.02,-125.8 1342.02,-129.3 1342.02,-122.3"/>
</g>
<!-- DialogLegalnoticeComponent -->
<g id="node7" class="node">
<title>DialogLegalnoticeComponent</title>
<polygon fill="#ffffb3" stroke="black" points="1803.52,-84.8 1618.48,-84.8 1618.48,-48.8 1803.52,-48.8 1803.52,-84.8"/>
<text text-anchor="middle" x="1711" y="-62.6" font-family="Times,serif" font-size="14.00">DialogLegalnoticeComponent</text>
</g>
<!-- DialogLegalnoticeComponent&#45;&gt;AppModule -->
<g id="edge7" class="edge">
<title>DialogLegalnoticeComponent&#45;&gt;AppModule</title>
<path fill="none" stroke="black" d="M1711,-84.81C1711,-100.85 1711,-121.8 1711,-121.8 1711,-121.8 1341.91,-121.8 1341.91,-121.8"/>
<polygon fill="black" stroke="black" points="1341.91,-118.3 1331.91,-121.8 1341.91,-125.3 1341.91,-118.3"/>
</g>
<!-- DialogProfileSettingsComponent -->
<g id="node8" class="node">
<title>DialogProfileSettingsComponent</title>
<polygon fill="#ffffb3" stroke="black" points="1600.15,-84.8 1397.85,-84.8 1397.85,-48.8 1600.15,-48.8 1600.15,-84.8"/>
<text text-anchor="middle" x="1499" y="-62.6" font-family="Times,serif" font-size="14.00">DialogProfileSettingsComponent</text>
</g>
<!-- DialogProfileSettingsComponent&#45;&gt;AppModule -->
<g id="edge8" class="edge">
<title>DialogProfileSettingsComponent&#45;&gt;AppModule</title>
<path fill="none" stroke="black" d="M1499,-84.92C1499,-99.58 1499,-117.8 1499,-117.8 1499,-117.8 1341.79,-117.8 1341.79,-117.8"/>
<polygon fill="black" stroke="black" points="1341.79,-114.3 1331.79,-117.8 1341.79,-121.3 1341.79,-114.3"/>
</g>
<!-- DialogUserStatusComponent -->
<g id="node9" class="node">
<title>DialogUserStatusComponent</title>
<polygon fill="#ffffb3" stroke="black" points="1380.08,-84.8 1199.92,-84.8 1199.92,-48.8 1380.08,-48.8 1380.08,-84.8"/>
<text text-anchor="middle" x="1290" y="-62.6" font-family="Times,serif" font-size="14.00">DialogUserStatusComponent</text>
</g>
<!-- DialogUserStatusComponent&#45;&gt;AppModule -->
<g id="edge9" class="edge">
<title>DialogUserStatusComponent&#45;&gt;AppModule</title>
<path fill="none" stroke="black" d="M1290,-84.91C1290,-84.91 1290,-103.79 1290,-103.79"/>
<polygon fill="black" stroke="black" points="1286.5,-103.79 1290,-113.79 1293.5,-103.79 1286.5,-103.79"/>
</g>
<!-- MenuBarComponent -->
<g id="node10" class="node">
<title>MenuBarComponent</title>
<polygon fill="#ffffb3" stroke="black" points="1182.2,-84.8 1047.8,-84.8 1047.8,-48.8 1182.2,-48.8 1182.2,-84.8"/>
<text text-anchor="middle" x="1115" y="-62.6" font-family="Times,serif" font-size="14.00">MenuBarComponent</text>
</g>
<!-- MenuBarComponent&#45;&gt;AppModule -->
<g id="edge10" class="edge">
<title>MenuBarComponent&#45;&gt;AppModule</title>
<path fill="none" stroke="black" d="M1115,-84.92C1115,-99.58 1115,-117.8 1115,-117.8 1115,-117.8 1238.08,-117.8 1238.08,-117.8"/>
<polygon fill="black" stroke="black" points="1238.08,-121.3 1248.08,-117.8 1238.08,-114.3 1238.08,-121.3"/>
</g>
<!-- MessageComponent -->
<g id="node11" class="node">
<title>MessageComponent</title>
<polygon fill="#ffffb3" stroke="black" points="1030.31,-84.8 899.69,-84.8 899.69,-48.8 1030.31,-48.8 1030.31,-84.8"/>
<text text-anchor="middle" x="965" y="-62.6" font-family="Times,serif" font-size="14.00">MessageComponent</text>
</g>
<!-- MessageComponent&#45;&gt;AppModule -->
<g id="edge11" class="edge">
<title>MessageComponent&#45;&gt;AppModule</title>
<path fill="none" stroke="black" d="M965,-84.81C965,-100.85 965,-121.8 965,-121.8 965,-121.8 1238.18,-121.8 1238.18,-121.8"/>
<polygon fill="black" stroke="black" points="1238.18,-125.3 1248.18,-121.8 1238.18,-118.3 1238.18,-125.3"/>
</g>
<!-- SignInComponent -->
<g id="node12" class="node">
<title>SignInComponent</title>
<polygon fill="#ffffb3" stroke="black" points="882.17,-84.8 763.83,-84.8 763.83,-48.8 882.17,-48.8 882.17,-84.8"/>
<text text-anchor="middle" x="823" y="-62.6" font-family="Times,serif" font-size="14.00">SignInComponent</text>
</g>
<!-- SignInComponent&#45;&gt;AppModule -->
<g id="edge12" class="edge">
<title>SignInComponent&#45;&gt;AppModule</title>
<path fill="none" stroke="black" d="M823,-84.82C823,-102.17 823,-125.8 823,-125.8 823,-125.8 1238.15,-125.8 1238.15,-125.8"/>
<polygon fill="black" stroke="black" points="1238.15,-129.3 1248.15,-125.8 1238.15,-122.3 1238.15,-129.3"/>
</g>
<!-- SignUpComponent -->
<g id="node13" class="node">
<title>SignUpComponent</title>
<polygon fill="#ffffb3" stroke="black" points="746.11,-84.8 621.89,-84.8 621.89,-48.8 746.11,-48.8 746.11,-84.8"/>
<text text-anchor="middle" x="684" y="-62.6" font-family="Times,serif" font-size="14.00">SignUpComponent</text>
</g>
<!-- SignUpComponent&#45;&gt;AppModule -->
<g id="edge13" class="edge">
<title>SignUpComponent&#45;&gt;AppModule</title>
<path fill="none" stroke="black" d="M684,-85.02C684,-103.63 684,-129.8 684,-129.8 684,-129.8 1237.87,-129.8 1237.87,-129.8"/>
<polygon fill="black" stroke="black" points="1237.87,-133.3 1247.87,-129.8 1237.87,-126.3 1237.87,-133.3"/>
</g>
<!-- ThreadComponent -->
<g id="node14" class="node">
<title>ThreadComponent</title>
<polygon fill="#ffffb3" stroke="black" points="603.47,-84.8 482.53,-84.8 482.53,-48.8 603.47,-48.8 603.47,-84.8"/>
<text text-anchor="middle" x="543" y="-62.6" font-family="Times,serif" font-size="14.00">ThreadComponent</text>
</g>
<!-- ThreadComponent&#45;&gt;AppModule -->
<g id="edge14" class="edge">
<title>ThreadComponent&#45;&gt;AppModule</title>
<path fill="none" stroke="black" d="M543,-85.11C543,-104.95 543,-133.8 543,-133.8 543,-133.8 1238.24,-133.8 1238.24,-133.8"/>
<polygon fill="black" stroke="black" points="1238.24,-137.3 1248.24,-133.8 1238.24,-130.3 1238.24,-137.3"/>
</g>
<!-- AppComponent  -->
<g id="node17" class="node">
<title>AppComponent </title>
<polygon fill="#80b1d3" stroke="black" points="1344.44,-214.8 1235.56,-214.8 1235.56,-178.8 1344.44,-178.8 1344.44,-214.8"/>
<text text-anchor="middle" x="1290" y="-192.6" font-family="Times,serif" font-size="14.00">AppComponent </text>
</g>
<!-- AppModule&#45;&gt;AppComponent  -->
<g id="edge16" class="edge">
<title>AppModule&#45;&gt;AppComponent </title>
<path fill="none" stroke="black" stroke-dasharray="1,5" d="M1290,-149.91C1290,-149.91 1290,-168.79 1290,-168.79"/>
<polygon fill="black" stroke="black" points="1286.5,-168.79 1290,-178.79 1293.5,-168.79 1286.5,-168.79"/>
</g>
<!-- AppRoutingModule -->
<g id="node16" class="node">
<title>AppRoutingModule</title>
<polygon fill="#8dd3c7" stroke="black" points="459.27,-84.8 456.27,-88.8 435.27,-88.8 432.27,-84.8 330.73,-84.8 330.73,-48.8 459.27,-48.8 459.27,-84.8"/>
<text text-anchor="middle" x="395" y="-62.6" font-family="Times,serif" font-size="14.00">AppRoutingModule</text>
</g>
<!-- AppRoutingModule&#45;&gt;AppModule -->
<g id="edge15" class="edge">
<title>AppRoutingModule&#45;&gt;AppModule</title>
<path fill="none" stroke="black" d="M395,-85.08C395,-106.12 395,-137.8 395,-137.8 395,-137.8 1238.33,-137.8 1238.33,-137.8"/>
<polygon fill="black" stroke="black" points="1238.33,-141.3 1248.33,-137.8 1238.33,-134.3 1238.33,-141.3"/>
</g>
<!-- AuthService -->
<g id="node18" class="node">
<title>AuthService</title>
<ellipse fill="#fdb462" stroke="black" cx="248" cy="-66.8" rx="59.11" ry="18"/>
<text text-anchor="middle" x="248" y="-62.6" font-family="Times,serif" font-size="14.00">AuthService</text>
</g>
<!-- AuthService&#45;&gt;AppModule -->
<g id="edge17" class="edge">
<title>AuthService&#45;&gt;AppModule</title>
<path fill="none" stroke="black" d="M248,-84.96C248,-107.15 248,-141.8 248,-141.8 248,-141.8 1238.19,-141.8 1238.19,-141.8"/>
<polygon fill="black" stroke="black" points="1238.19,-145.3 1248.19,-141.8 1238.19,-138.3 1238.19,-145.3"/>
</g>
<!-- SideNavService -->
<g id="node19" class="node">
<title>SideNavService</title>
<ellipse fill="#fdb462" stroke="black" cx="97" cy="-66.8" rx="73.49" ry="18"/>
<text text-anchor="middle" x="97" y="-62.6" font-family="Times,serif" font-size="14.00">SideNavService</text>
</g>
<!-- SideNavService&#45;&gt;AppModule -->
<g id="edge18" class="edge">
<title>SideNavService&#45;&gt;AppModule</title>
<path fill="none" stroke="black" d="M97,-85.12C97,-108.46 97,-145.8 97,-145.8 97,-145.8 1238.24,-145.8 1238.24,-145.8"/>
<polygon fill="black" stroke="black" points="1238.24,-149.3 1248.24,-145.8 1238.24,-142.3 1238.24,-149.3"/>
</g>
</g>
</svg>
